<svg xmlns="http://www.w3.org/2000/svg" viewBox="0 0 958.48 980.976"><defs><style>.a{opacity:0.52;}.b{fill:#bbdad7;}</style></defs><g class="a" transform="translate(-152.448 -16.2)"><g transform="translate(409.948 87.961)"><g transform="translate(0 42.571)"><path class="b" d="M298.868,164.034h-.215a.687.687,0,0,1-.646-.646L272.169,117.1c-.215-.646-.215-1.292.431-1.507l23.039-12.919c.646-.215,1.292-.215,1.507.431l5.168,9.259a.655.655,0,0,1,0,.861.688.688,0,0,1-.646.646l-8.182,4.522,3.876,6.675,7.536-4.306c.646-.215,1.292-.215,1.507.431l4.952,8.828a.655.655,0,0,1,0,.861.688.688,0,0,1-.646.646l-7.536,4.306,4.522,8.182,9.043-5.168a.655.655,0,0,1,.861,0,.688.688,0,0,1,.646.646l5.168,9.259c.215.646.215,1.292-.431,1.507l-23.9,13.35C299.083,164.034,298.868,164.034,298.868,164.034Z" transform="translate(-272.04 -30.969)"/><path class="b" d="M302.95,134.365a1.184,1.184,0,0,1-1.077-.646L298,126.829a.655.655,0,0,1,0-.861.687.687,0,0,1,.646-.646l27.56-15.287a.655.655,0,0,1,.861,0,.688.688,0,0,1,.646.646l3.876,6.89c.215.646.215,1.292-.431,1.507L303.6,134.365ZM296.706,123.6h-.215a.687.687,0,0,1-.646-.646l-3.876-6.89c-.215-.646-.215-1.292.431-1.507l27.56-15.287c.646-.215,1.292-.215,1.507.431l3.876,6.89a.655.655,0,0,1,0,.861.688.688,0,0,1-.646.646l-27.56,15.287A.753.753,0,0,1,296.706,123.6Z" transform="translate(-249.208 -34.89)"/><path class="b" d="M334.2,150.315a1.184,1.184,0,0,1-1.077-.646l-25.838-46.293a.655.655,0,0,1,0-.861.688.688,0,0,1,.646-.646l17.871-9.9a1.326,1.326,0,0,1,1.507.215q3.23,3.876,7.105,9.043l3.876,4.952L332.048,89.6a1.427,1.427,0,0,1,.431-1.507l17.871-10.12c.646-.215,1.292-.215,1.507.431l25.838,46.293a.655.655,0,0,1,0,.861.687.687,0,0,1-.646.646l-12.058,6.675c-.646.215-1.292.215-1.507-.431l-10.12-18.086,7.321,19.809a1.427,1.427,0,0,1-.431,1.507l-8.613,4.737a1.326,1.326,0,0,1-1.507-.215L337,123.4l10.335,18.3c.215.646.215,1.292-.431,1.507l-12.058,6.675C334.632,150.1,334.416,150.315,334.2,150.315Z" transform="translate(-231.582 -59.452)"/><path class="b" d="M360.65,126.574a12.213,12.213,0,0,1-7.967-2.584c-2.153-1.938-4.522-5.168-7.321-9.689l-7.536-13.565a50.811,50.811,0,0,1-3.876-7.967,13.718,13.718,0,0,1-.431-6.675,15.042,15.042,0,0,1,3.66-7.105,26.57,26.57,0,0,1,7.536-6.029c4.306-2.368,8.182-3.66,11.627-3.66h.646a13.656,13.656,0,0,1,8.182,2.368c2.153,1.723,4.306,4.737,6.89,9.259l2.368,4.306c.215.646.215,1.292-.431,1.507l-13.78,7.751a.655.655,0,0,1-.861,0,.688.688,0,0,1-.646-.646l-4.522-7.967c-1.722-3.014-2.369-3.66-2.584-3.66a1.582,1.582,0,0,0-1.292.215c-.646.431-1.077.861-1.077,1.077,0,.431.431,1.507,1.938,4.306l12.058,21.532a24.671,24.671,0,0,0,2.584,3.876c.215.215.431.215,1.292-.215s.861-.861.861-1.077-.215-1.292-2.153-4.522l-3.23-5.813c-.215-.646-.215-1.292.431-1.507l13.78-7.751a.655.655,0,0,1,.861,0,.687.687,0,0,1,.646.646l1.077,1.723c2.8,4.952,4.306,8.613,4.737,11.2.431,2.8-.431,5.6-2.369,8.828s-4.952,5.814-9.043,8.182a26.507,26.507,0,0,1-11.627,3.876C361.3,126.574,361.08,126.574,360.65,126.574Z" transform="translate(-201.403 -69.3)"/></g><g transform="translate(152.272)"><path class="b" d="M360.07,95.114h-.215a.687.687,0,0,1-.646-.646l-2.8-4.952c0-.215-.215-.431-.215-.646.431-12.273.646-20.024.431-22.608s-.431-4.522-1.077-5.6c-.431-.861-.861-1.292-1.077-1.292-.215-.215-.431,0-.861,0-.431.215-.431.431-.431.646s0,.861,1.077,2.8l1.938,3.23a.655.655,0,0,1,0,.861.687.687,0,0,1-.646.646L347.8,71.86a.655.655,0,0,1-.861,0,.687.687,0,0,1-.646-.646l-.646-1.292a32.653,32.653,0,0,1-2.368-4.952,11.145,11.145,0,0,1-.431-4.737,10.1,10.1,0,0,1,1.938-4.737,15.965,15.965,0,0,1,4.522-3.66c3.66-2.153,7.105-2.8,10.12-1.938a11.41,11.41,0,0,1,7.105,5.6,17.1,17.1,0,0,1,2.153,7.536c.215,2.584,0,8.182-.646,17.01l7.536-4.306c.646-.215,1.292-.215,1.507.431l3.23,6.029a.655.655,0,0,1,0,.861.688.688,0,0,1-.646.646L360.5,94.468C360.5,95.114,360.286,95.114,360.07,95.114Z" transform="translate(-342.761 -49.529)"/></g></g><g transform="translate(839.2 478.051)"><path class="b" d="M610.924,313.166c-.215,0-.431,0-.431-.215L472.046,242.973a1.3,1.3,0,0,1-.646-1.292.985.985,0,0,1,1.077-.861L602.1,230.7h.646l139.74,63.087a1.3,1.3,0,0,1,.646,1.292c0,.431-.431.861-1.077,1.077l-131.127,17.01ZM476.568,242.758l134.357,67.824L737.53,294.218,601.881,232.853Z" transform="translate(-471.4 -230.7)"/><ellipse class="b" cx="4.522" cy="12.919" rx="4.522" ry="12.919" transform="translate(121.694 42.577) rotate(-77.074)"/><path class="b" d="M618.267,336.927c-13.565,0-31.651-2.368-53.829-6.89l-4.306-1.077c-65.886-16.795-69.332-30.144-69.332-31.651v-.431l10.981-48.231c0-.431.215-.646.646-.861a.961.961,0,0,1,1.077,0l85.265,43.063,61.58-7.967a1.185,1.185,0,0,1,1.077.431.947.947,0,0,1,.215,1.077l-10.766,46.723c0,.215,0,.215-.215.431C640.444,332.405,637,336.927,618.267,336.927ZM492.953,297.309c.431,1.292,6.459,14,67.609,29.5l4.306,1.077c21.962,4.522,40.049,6.675,53.183,6.675,15.718,0,19.809-3.23,20.455-3.876l10.335-45-60.288,7.751a.791.791,0,0,1-.646-.215l-84.4-42.632Z" transform="translate(-449.029 -211.183)"/><path class="b" d="M611.989,306.61h-.215c-.646-.215-1.077-.861-.861-1.292l6.029-26.7L540.289,253a1.159,1.159,0,1,1,.861-2.153L618.664,276.9a1.339,1.339,0,0,1,.861,1.292l-6.244,27.56A1.771,1.771,0,0,1,611.989,306.61Z" transform="translate(-392.798 -207.565)"/><path class="b" d="M576.888,274.444a3.773,3.773,0,0,0-4.522,2.8l-1.722,7.751a3.76,3.76,0,1,0,7.321,1.723l1.723-7.751A4,4,0,0,0,576.888,274.444Z" transform="translate(-357.052 -180.352)"/></g><g transform="translate(846.321 284.913)"><path class="b" d="M481.151,178.234h-.215c-.215,0-.646-.215-.646-.431l-2.584-4.306a21.208,21.208,0,0,1-2.368-16.149,21.192,21.192,0,0,1,20.67-16.149,21.7,21.7,0,0,1,18.3,10.335l2.584,4.306a1.294,1.294,0,0,1,.215.861c0,.215-.215.646-.431.646l-34.666,20.67C481.582,178.019,481.367,178.234,481.151,178.234Zm14.857-34.881a19.213,19.213,0,0,0-9.689,2.584,18.176,18.176,0,0,0-8.613,11.627,18.788,18.788,0,0,0,2.153,14.426l1.938,3.23,32.728-19.378-1.938-3.23A20.1,20.1,0,0,0,496.008,143.353Z" transform="translate(-474.707 -140.769)"/><path class="b" d="M485.271,182.366h-.215c-.215,0-.646-.215-.646-.431l-6.89-11.842a.925.925,0,0,1,.431-1.507l34.666-20.67a1.294,1.294,0,0,1,.861-.215c.215,0,.646.215.646.431l6.89,11.842a1.294,1.294,0,0,1,.215.861c0,.215-.215.646-.431.646l-34.666,20.67A1.627,1.627,0,0,1,485.271,182.366Zm-5.383-12.488,5.814,9.689,32.728-19.378-5.814-9.689Z" transform="translate(-471.722 -133.274)"/><path class="b" d="M537.411,247.438a1.184,1.184,0,0,1-1.077-.646L485.52,161.527a1.108,1.108,0,0,1,1.938-1.077l50.814,85.265a.925.925,0,0,1-.431,1.507A.752.752,0,0,1,537.411,247.438Z" transform="translate(-462.496 -119.325)"/><path class="b" d="M543.08,242.877a1.184,1.184,0,0,1-1.077-.646l-50.384-84.4a1.108,1.108,0,0,1,1.938-1.077l50.384,84.4a.925.925,0,0,1-.431,1.507C543.511,242.877,543.3,242.877,543.08,242.877Z" transform="translate(-455.462 -123.592)"/><path class="b" d="M544.072,239.947a.791.791,0,0,1-.646-.215l-37.9-23.039c-.215-.215-.431-.431-.431-.646a1.294,1.294,0,0,1,.215-.861c.431-.861,13.134-20.024,35.1-20.886a1.365,1.365,0,0,1,1.292,1.077l3.66,43.063v.431a1.4,1.4,0,0,1-1.292,1.077ZM507.684,215.4l35.1,21.1-3.445-40.049C521.895,197.745,510.483,211.525,507.684,215.4Z" transform="translate(-439.659 -79.537)"/><path class="b" d="M529.188,207.433s-8.613-1.292-12.488,7.967l14,8.4Z" transform="translate(-426.283 -64.464)"/><path class="b" d="M541.655,278.586h0l-.861-.215c-.431,0-.646-.215-.861-.646L477.706,173.3a21.208,21.208,0,0,1-2.368-16.149A21.192,21.192,0,0,1,496.008,141a21.7,21.7,0,0,1,18.3,10.335l62.011,104.213a1.3,1.3,0,0,1,.215.861v.431a1.181,1.181,0,0,1-1.292.861.791.791,0,0,1-.646-.215c-17.871,1.077-29.283,15.287-32.082,18.948,0,.215.215.215.215.431,0,1.292-.431,1.723-1.077,1.723Zm-45.647-135a19.213,19.213,0,0,0-9.689,2.584,18.176,18.176,0,0,0-8.613,11.627,18.788,18.788,0,0,0,2.153,14.426l61.365,102.921c3.014-4.306,14.426-18.086,32.513-19.594l-61.15-102.705A20.1,20.1,0,0,0,496.008,143.584Z" transform="translate(-474.707 -141)"/><path class="b" d="M516.3,229.471a1.184,1.184,0,0,1-1.077-.646.925.925,0,0,1,.431-1.507,100.278,100.278,0,0,1,32.943-12.488c1.938-.431,4.306-.646,6.244.431a8.19,8.19,0,0,1,2.8,2.584c.861.861,1.507,1.938,2.584,2.153a6.631,6.631,0,0,0,3.445-.431l26.268-7.967a1.941,1.941,0,0,1,1.077.215,1.119,1.119,0,0,1,.431.861,4.172,4.172,0,0,0,3.445,3.014c1.938.215,4.091-.646,5.814-1.292a1.16,1.16,0,1,1,.861,2.153c-2.153.861-4.306,1.723-6.89,1.507-2.153-.215-4.522-1.507-5.168-3.66l-24.977,7.536a8.554,8.554,0,0,1-4.737.431c-1.722-.431-2.584-1.723-3.66-2.8a4.577,4.577,0,0,0-2.153-1.938c-1.292-.646-3.014-.431-4.737-.215a95.359,95.359,0,0,0-32.082,12.273A1.627,1.627,0,0,0,516.3,229.471Z" transform="translate(-428.248 -59.587)"/></g><g transform="translate(612.258 72.772)"><path class="b" d="M429.709,167.565h0l-34.666-6.029c-.215,0-.646-.215-.646-.431a1.294,1.294,0,0,1-.215-.861c1.292-7.751-.431-18.732-.431-18.732a72.887,72.887,0,0,0-5.6-13.35,116.781,116.781,0,0,1-5.6-12.919,50.59,50.59,0,0,1,.215-29.929c5.6-16.364,21.1-26.914,39.833-26.914,13.134,0,25.407,5.168,33.589,14.426,7.321,8.182,10.981,17.871,10.766,27.345a50.11,50.11,0,0,1-10.12,28.206,73.44,73.44,0,0,1-9.689,10.335,76.627,76.627,0,0,0-9.9,10.55s-5.383,9.474-6.89,17.441c0,.215-.215.646-.431.646C430.139,167.35,429.924,167.565,429.709,167.565Zm-33.159-8.182,32.3,5.6a67.1,67.1,0,0,1,6.89-17.01,71.2,71.2,0,0,1,10.12-10.981,67.288,67.288,0,0,0,9.259-9.9,47.816,47.816,0,0,0,9.689-26.914c.215-9.043-3.445-18.086-10.335-25.838A42.881,42.881,0,0,0,422.6,60.553c-17.656,0-32.513,9.9-37.68,25.407a47.362,47.362,0,0,0-.215,28.422,72.759,72.759,0,0,0,5.383,12.488c2.153,4.306,4.522,8.828,5.814,13.78C395.9,141.3,397.627,151.2,396.55,159.383Z" transform="translate(-349.396 -24.109)"/><path class="b" d="M424.668,124.42h-1.076l-34.02-6.029a6.393,6.393,0,0,1-4.306-2.8,5.921,5.921,0,0,1-1.077-4.952,6.633,6.633,0,0,1,7.751-5.383l34.02,6.029a6.393,6.393,0,0,1,4.306,2.8,5.921,5.921,0,0,1,1.077,4.952A6.875,6.875,0,0,1,424.668,124.42Zm-34.02-17.01a4.38,4.38,0,0,0-4.306,3.66,4.244,4.244,0,0,0,.646,3.23,4.786,4.786,0,0,0,2.8,1.723l34.02,6.029a4.59,4.59,0,0,0,5.168-3.445,4.244,4.244,0,0,0-.646-3.23,4.786,4.786,0,0,0-2.8-1.723l-34.02-6.029A1.628,1.628,0,0,0,390.648,107.41Z" transform="translate(-345.216 29.802)"/><path class="b" d="M417.454,128.413h-1.077l-25.838-4.522a6.673,6.673,0,0,1,2.368-13.134l25.838,4.522a6.633,6.633,0,0,1,5.383,7.751A6.92,6.92,0,0,1,417.454,128.413Zm-25.838-15.718a4.465,4.465,0,0,0-.861,8.828l25.838,4.522a4.59,4.59,0,0,0,5.168-3.445,4.415,4.415,0,0,0-3.445-5.168l-25.838-4.522A1.628,1.628,0,0,0,391.616,112.695Z" transform="translate(-344.032 36.144)"/><path class="b" d="M399.519,129.665h0a5.961,5.961,0,0,1-1.938-.215,11.173,11.173,0,0,1-9.043-12.273,1.632,1.632,0,0,1,.431-.861,1.3,1.3,0,0,1,.861-.215l19.378,3.445a1.632,1.632,0,0,1,.861.431,1.294,1.294,0,0,1,.215.861A11.04,11.04,0,0,1,399.519,129.665Zm-8.613-10.981a8.951,8.951,0,0,0,7.105,8.613,8.849,8.849,0,0,0,9.689-5.6Z" transform="translate(-340.092 42.428)"/><path class="b" d="M392.169,131.462a1.017,1.017,0,0,1-1.077-1.077L389.8,86.892a1.189,1.189,0,0,1,2.369-.215l1.292,43.494c-.215.646-.646,1.292-1.292,1.292Z" transform="translate(-338.555 7.257)"/><path class="b" d="M400.12,131.276h-.431a1.112,1.112,0,0,1-.646-1.507l16.149-40.479a1.16,1.16,0,0,1,2.153.861L401.2,130.63A1.184,1.184,0,0,1,400.12,131.276Z" transform="translate(-327.989 10.673)"/><path class="b" d="M401.342,115.089h-.215a1.181,1.181,0,0,1-.861-1.292l2.153-24.546-5.168,11.2a1.3,1.3,0,0,1-1.292.646l-5.168-.861c-.646-.215-1.077-.646-.861-1.292s.646-1.077,1.292-.861l4.306.646,7.536-16.149c.215-.431.861-.861,1.292-.646a1.181,1.181,0,0,1,.861,1.292l-2.153,24.761,4.091-8.828a1.184,1.184,0,0,1,1.076-.646,1.43,1.43,0,0,1,1.077.861l1.292,6.244,6.89-14a1.535,1.535,0,0,1,1.292-.646,1.431,1.431,0,0,1,.861,1.077l-.215,11.2,4.306.646c.646.215,1.077.646.861,1.292s-.646,1.077-1.292.861l-5.168-.861c-.646,0-.861-.646-.861-1.077l.215-6.89-6.029,12.273a1.184,1.184,0,0,1-1.077.646,1.431,1.431,0,0,1-1.077-.861l-1.292-6.029-5.383,11.627C402.2,114.874,401.772,115.089,401.342,115.089Z" transform="translate(-338.47 2.96)"/><path class="b" d="M405.706,63.2h0c-.861-.215-1.292-.646-1.077-1.292l3.23-18.517c.215-.646.646-1.077,1.292-.861s1.076.646.861,1.292l-3.23,18.517A.985.985,0,0,1,405.706,63.2Z" transform="translate(-321.518 -42.474)"/><path class="b" d="M394.271,63.706a1.184,1.184,0,0,1-1.077-.646l-7.751-17.01a1.16,1.16,0,1,1,2.153-.861l7.751,17.01a1.112,1.112,0,0,1-.646,1.507Z" transform="translate(-343.672 -40.181)"/><path class="b" d="M387.594,68.7a.791.791,0,0,1-.646-.215L370.8,59.007a1.108,1.108,0,0,1,1.077-1.938l16.149,9.474a1.135,1.135,0,0,1,.431,1.507C388.456,68.481,388.025,68.7,387.594,68.7Z" transform="translate(-361.11 -25.792)"/><path class="b" d="M367.077,78.16A1.017,1.017,0,0,1,366,77.084a1.206,1.206,0,0,1,1.077-1.292L385.809,74.5a1.189,1.189,0,1,1,.215,2.368L367.077,78.16Z" transform="translate(-366 -5.543)"/><path class="b" d="M419.634,67.176a1.632,1.632,0,0,1-.861-.431,1.3,1.3,0,0,1,0-1.723l13.134-13.35A1.218,1.218,0,0,1,433.63,53.4L420.5,66.745A1.118,1.118,0,0,1,419.634,67.176Z" transform="translate(-305.517 -32.239)"/><path class="b" d="M427.107,73.928a.985.985,0,0,1-1.077-.861.949.949,0,0,1,.861-1.292l18.517-3.445a1.1,1.1,0,1,1,.431,2.153l-18.732,3.445Z" transform="translate(-296.841 -12.723)"/><path class="b" d="M442.745,93.132h-.431L425.089,85.6a1.16,1.16,0,0,1,.861-2.153l17.225,7.536a1.112,1.112,0,0,1,.646,1.507A1.184,1.184,0,0,1,442.745,93.132Z" transform="translate(-298.699 4.677)"/></g><g transform="translate(484.118 784.633)"><path class="b" d="M365.727,484.218c-2.8,0-5.383-1.077-7.967-2.153a24.276,24.276,0,0,0-5.168-1.722,18.563,18.563,0,0,0-3.66-.215h-3.876a15.672,15.672,0,0,1-6.89-1.292c-2.8-1.292-4.522-3.876-6.459-6.244a34.962,34.962,0,0,0-3.66-4.091,45.412,45.412,0,0,0-4.737-3.014c-2.584-1.507-5.383-3.014-7.105-5.383s-2.153-5.6-2.584-8.4a19.88,19.88,0,0,0-1.077-5.383,25.715,25.715,0,0,0-2.584-4.737c-1.507-2.584-3.23-5.168-3.445-8.4-.215-3.014.861-6.029,2.153-8.828a24.271,24.271,0,0,0,1.723-5.168,23.917,23.917,0,0,0,.215-5.6c0-3.014-.215-6.029,1.076-8.828s3.876-4.522,6.244-6.459a34.956,34.956,0,0,0,4.091-3.66,45.372,45.372,0,0,0,3.014-4.737c1.507-2.584,3.014-5.383,5.383-7.105s5.6-2.153,8.4-2.584a19.878,19.878,0,0,0,5.383-1.077,25.719,25.719,0,0,0,4.737-2.584c2.584-1.507,5.168-3.23,8.4-3.445,3.014-.215,6.029.861,8.828,2.153a24.279,24.279,0,0,0,5.168,1.722,18.566,18.566,0,0,0,3.66.215h3.876a15.674,15.674,0,0,1,6.89,1.292c2.8,1.292,4.522,3.876,6.459,6.244a34.953,34.953,0,0,0,3.66,4.091,45.386,45.386,0,0,0,4.737,3.014c2.584,1.507,5.383,3.014,7.105,5.383s2.153,5.6,2.584,8.4a19.878,19.878,0,0,0,1.077,5.383,25.721,25.721,0,0,0,2.584,4.737c1.507,2.584,3.23,5.168,3.445,8.4.215,3.014-.861,6.029-2.153,8.828a24.275,24.275,0,0,0-1.723,5.168,23.918,23.918,0,0,0-.215,5.6c0,3.014.215,6.029-1.077,8.828s-3.876,4.522-6.244,6.459a34.96,34.96,0,0,0-4.091,3.66,45.377,45.377,0,0,0-3.014,4.737c-1.507,2.584-3.014,5.383-5.383,7.105s-5.6,2.153-8.4,2.584a19.878,19.878,0,0,0-5.383,1.077,25.725,25.725,0,0,0-4.737,2.584c-2.584,1.507-5.168,3.23-8.4,3.445Zm-16.795-6.459a22.214,22.214,0,0,1,4.091.215,28.822,28.822,0,0,1,5.6,1.938c2.584,1.077,5.168,2.153,7.751,1.938s4.952-1.723,7.321-3.014a30.457,30.457,0,0,1,5.168-2.8,49.613,49.613,0,0,1,6.029-1.292c2.8-.431,5.383-.646,7.536-2.153s3.445-3.876,4.737-6.244a24.451,24.451,0,0,1,3.23-4.952,25.388,25.388,0,0,1,4.522-3.876c2.368-1.722,4.522-3.445,5.6-5.6s1.077-4.952.861-7.751a56.411,56.411,0,0,1,.215-6.029,28.809,28.809,0,0,1,1.938-5.6c1.077-2.584,2.153-5.168,1.938-7.751s-1.723-4.952-3.014-7.321a30.448,30.448,0,0,1-2.8-5.168,49.6,49.6,0,0,1-1.292-6.029c-.431-2.8-.646-5.383-2.153-7.536s-3.876-3.445-6.244-4.737a24.445,24.445,0,0,1-4.952-3.23,25.386,25.386,0,0,1-3.876-4.522,19.768,19.768,0,0,0-5.6-5.6,15.748,15.748,0,0,0-7.751-.861h-1.938a22.216,22.216,0,0,1-4.091-.215,28.825,28.825,0,0,1-5.6-1.938c-2.584-1.077-5.168-2.153-7.751-1.938s-4.952,1.722-7.321,3.014a30.456,30.456,0,0,1-5.168,2.8,49.588,49.588,0,0,1-6.029,1.292c-2.8.431-5.383.646-7.536,2.153s-3.445,3.876-4.737,6.244a24.449,24.449,0,0,1-3.23,4.952,25.393,25.393,0,0,1-4.522,3.876,19.77,19.77,0,0,0-5.6,5.6c-1.076,2.153-1.076,4.952-.861,7.751a56.428,56.428,0,0,1-.215,6.029,28.815,28.815,0,0,1-1.938,5.6c-1.077,2.584-2.153,5.168-1.938,7.751s1.722,4.952,3.014,7.321a30.455,30.455,0,0,1,2.8,5.168,49.605,49.605,0,0,1,1.292,6.029c.431,2.8.646,5.383,2.153,7.536s3.876,3.445,6.244,4.737a24.439,24.439,0,0,1,4.952,3.23,25.392,25.392,0,0,1,3.876,4.522c1.722,2.369,3.445,4.306,5.6,5.383a15.747,15.747,0,0,0,7.751.861A5.959,5.959,0,0,0,348.932,477.758Z" transform="translate(-306.487 -373.087)"/><path class="b" d="M353.688,459.9a40.01,40.01,0,0,1-39.618-36.6,39.156,39.156,0,0,1,9.474-28.852,40.114,40.114,0,0,1,27.13-13.78c21.962-1.722,40.91,15.072,42.632,36.6a39.156,39.156,0,0,1-9.474,28.852A40.114,40.114,0,0,1,356.7,459.9Zm0-77.083a12.278,12.278,0,0,0-2.8.215,38.409,38.409,0,0,0-25.622,12.919,36.7,36.7,0,0,0-8.828,27.13,37.66,37.66,0,0,0,40.049,34.45,38.409,38.409,0,0,0,25.622-12.919,36.705,36.705,0,0,0,8.828-27.13A37.684,37.684,0,0,0,353.688,382.818Z" transform="translate(-297.893 -364.489)"/><path class="b" d="M350.148,493.6a1.184,1.184,0,0,1-1.077-.646l-13.134-23.685-23.469,16.364a1.372,1.372,0,0,1-1.292,0,.786.786,0,0,1-.431-1.077l12.919-66.748a.926.926,0,0,1,.861-.861.947.947,0,0,1,1.077.215,18.185,18.185,0,0,1,3.23,3.876,19.767,19.767,0,0,0,5.6,5.6,15.748,15.748,0,0,0,7.751.861h1.938a22.214,22.214,0,0,1,4.091.215,28.819,28.819,0,0,1,5.6,1.938c2.584,1.077,5.168,2.153,7.751,1.938a1.185,1.185,0,0,1,1.077.431.947.947,0,0,1,.215,1.077l-11.627,59.858c0,.215-.431.646-1.077.646Zm-13.78-27.13h.215a.687.687,0,0,1,.646.646l12.058,22.177,10.766-55.336a22.046,22.046,0,0,1-7.321-2.153,24.269,24.269,0,0,0-5.168-1.722,18.558,18.558,0,0,0-3.66-.215h-3.876a15.672,15.672,0,0,1-6.89-1.292c-2.8-1.292-4.737-3.876-6.459-6.244-.431-.646-1.077-1.292-1.507-1.938l-11.842,61.8L335.722,466.9C335.937,466.47,336.152,466.47,336.368,466.47Z" transform="translate(-301.674 -322.612)"/><path class="b" d="M356.847,495.283h0a1.1,1.1,0,0,1-1.077-.861L335.1,436.5v-.861l.646-.646a21.694,21.694,0,0,0,4.952-2.584,19.339,19.339,0,0,1,5.168-2.584,49.6,49.6,0,0,1,6.029-1.292c2.8-.431,5.383-.646,7.536-2.153s3.445-3.876,4.737-6.244a24.447,24.447,0,0,1,3.23-4.952l1.722-1.722a.947.947,0,0,1,1.077-.215c.431,0,.646.431.861.646L394.742,480a1.127,1.127,0,0,1-1.507,1.507L367.4,469.014l-9.259,25.407C357.708,494.852,357.277,495.283,356.847,495.283Zm-19.378-58.35,19.163,53.829,8.613-23.685c.215-.215.431-.646.646-.646a.655.655,0,0,1,.861,0l24.331,11.842-21.747-61.8-.215.215a45.382,45.382,0,0,0-3.014,4.737c-1.507,2.584-3.014,5.383-5.383,7.105s-5.6,2.153-8.4,2.584a19.875,19.875,0,0,0-5.383,1.077,25.72,25.72,0,0,0-4.737,2.584C340.483,435.425,338.976,436.286,337.468,436.932Z" transform="translate(-273.492 -326.879)"/></g><g transform="translate(285.592 708.438)"><path class="b" d="M215.394,548.278a1.118,1.118,0,0,1-.861-.431c-.215-.431-.431-.861,0-1.292l21.316-37.034,99.26-171.176a1.184,1.184,0,0,1,1.077-.646,1.431,1.431,0,0,1,1.077.861l48.877,154.6a1.314,1.314,0,0,1-.646,1.507L215.825,548.278ZM335.971,341.791,237.787,510.6l-20.024,34.45L383.34,492.727Zm-57.92,155.027a1.119,1.119,0,0,1-.861-.431c-.215-.431-.431-.861,0-1.292l50.6-84.619a1.184,1.184,0,0,1,1.077-.646.926.926,0,0,1,.861.861l19.809,62.441v.861l-.646.646-70.408,22.177Zm50.384-82.9-47.8,79.882,66.317-20.886Z" transform="translate(-214.285 -337.7)"/><g transform="translate(29.044 151.309)"><path class="b" d="M262.645,424.359a1.1,1.1,0,0,1-1.077-.861l-1.938-6.459a1.16,1.16,0,1,1,2.153-.861l1.938,6.459a1.314,1.314,0,0,1-.646,1.507A.667.667,0,0,1,262.645,424.359Z" transform="translate(-191.103 -399.325)"/><path class="b" d="M270.545,421.859a1.1,1.1,0,0,1-1.077-.861l-1.938-6.459a1.16,1.16,0,1,1,2.153-.861l1.938,6.459a1.313,1.313,0,0,1-.646,1.507C270.76,421.859,270.76,421.859,270.545,421.859Z" transform="translate(-181.993 -402.208)"/><path class="b" d="M278.545,419.359a1.1,1.1,0,0,1-1.077-.861l-1.938-6.46a1.16,1.16,0,0,1,2.153-.861l1.938,6.459a1.314,1.314,0,0,1-.646,1.507A.667.667,0,0,1,278.545,419.359Z" transform="translate(-172.768 -405.09)"/><path class="b" d="M286.445,416.859a1.1,1.1,0,0,1-1.077-.861l-1.938-6.459a1.16,1.16,0,1,1,2.153-.861l1.938,6.459a1.314,1.314,0,0,1-.646,1.507C286.66,416.859,286.66,416.859,286.445,416.859Z" transform="translate(-163.658 -407.973)"/><path class="b" d="M230.845,434.259a1.1,1.1,0,0,1-1.077-.861l-1.938-6.459a1.16,1.16,0,1,1,2.153-.861l1.938,6.459a1.314,1.314,0,0,1-.646,1.507C231.06,434.259,231.06,434.259,230.845,434.259Z" transform="translate(-227.773 -387.909)"/><path class="b" d="M238.845,431.759a1.1,1.1,0,0,1-1.077-.861l-1.938-6.459a1.16,1.16,0,0,1,2.153-.861l1.938,6.46a1.313,1.313,0,0,1-.646,1.507A.667.667,0,0,1,238.845,431.759Z" transform="translate(-218.548 -390.791)"/><path class="b" d="M246.745,429.259a1.1,1.1,0,0,1-1.077-.861l-1.938-6.46a1.16,1.16,0,0,1,2.153-.861l1.938,6.459a1.314,1.314,0,0,1-.646,1.507C246.96,429.259,246.96,429.259,246.745,429.259Z" transform="translate(-209.438 -393.674)"/><path class="b" d="M254.745,426.759a1.1,1.1,0,0,1-1.077-.861l-1.938-6.459a1.16,1.16,0,1,1,2.153-.861l1.938,6.459a1.313,1.313,0,0,1-.646,1.507A.667.667,0,0,1,254.745,426.759Z" transform="translate(-200.213 -396.557)"/></g><g transform="translate(118.615 19.967)"><path class="b" d="M280.407,383.037a1.1,1.1,0,0,1-1.077-.861,1.314,1.314,0,0,1,.646-1.507l6.459-1.938a1.16,1.16,0,0,1,.861,2.153l-6.459,1.938C280.623,383.037,280.623,383.037,280.407,383.037Z" transform="translate(-257.957 -310.418)"/><path class="b" d="M282.907,391.037a1.1,1.1,0,0,1-1.077-.861,1.314,1.314,0,0,1,.646-1.507l6.459-1.938a1.16,1.16,0,1,1,.861,2.153l-6.459,1.938C283.123,391.037,283.123,391.037,282.907,391.037Z" transform="translate(-255.074 -301.193)"/><path class="b" d="M285.407,398.937a1.1,1.1,0,0,1-1.077-.861,1.313,1.313,0,0,1,.646-1.507l6.459-1.938a1.16,1.16,0,0,1,.861,2.153l-6.459,1.938C285.623,398.937,285.623,398.937,285.407,398.937Z" transform="translate(-252.191 -292.083)"/><path class="b" d="M288.007,406.937a1.1,1.1,0,0,1-1.077-.861,1.314,1.314,0,0,1,.646-1.507l6.46-1.938a1.16,1.16,0,1,1,.861,2.153l-6.459,1.938A.667.667,0,0,1,288.007,406.937Z" transform="translate(-249.193 -282.858)"/><path class="b" d="M270.507,351.337a1.1,1.1,0,0,1-1.077-.861,1.314,1.314,0,0,1,.646-1.507l6.459-1.938a1.16,1.16,0,0,1,.861,2.153l-6.459,1.938C270.723,351.337,270.723,351.337,270.507,351.337Z" transform="translate(-269.373 -346.973)"/><path class="b" d="M273.007,359.237a1.1,1.1,0,0,1-1.077-.861,1.314,1.314,0,0,1,.646-1.507l6.459-1.938a1.16,1.16,0,1,1,.861,2.153l-6.459,1.938C273.223,359.237,273.223,359.237,273.007,359.237Z" transform="translate(-266.491 -337.863)"/><path class="b" d="M275.607,367.237a1.1,1.1,0,0,1-1.077-.861,1.314,1.314,0,0,1,.646-1.507l6.459-1.938a1.16,1.16,0,0,1,.861,2.153l-6.459,1.938A.667.667,0,0,1,275.607,367.237Z" transform="translate(-263.492 -328.638)"/><path class="b" d="M278.107,375.137a1.1,1.1,0,0,1-1.077-.861,1.314,1.314,0,0,1,.646-1.507l6.459-1.938a1.16,1.16,0,0,1,.861,2.153l-6.459,1.938A.667.667,0,0,1,278.107,375.137Z" transform="translate(-260.609 -319.528)"/></g></g><g transform="translate(762.153 151.81)"><path class="b" d="M490.748,102.044h-.861L449.838,95.8a6.28,6.28,0,0,1-4.522-3.23,9.525,9.525,0,0,1-1.077-6.029c.646-4.522,4.306-7.751,7.967-7.321l40.049,6.244a6.28,6.28,0,0,1,4.522,3.23,11.214,11.214,0,0,1,1.077,6.029C497.423,98.814,494.193,102.044,490.748,102.044Zm-38.972-20.67c-2.368,0-4.522,2.368-4.952,5.383a7.766,7.766,0,0,0,.646,4.522,3.92,3.92,0,0,0,2.8,2.153l40.049,6.244c2.368.431,4.952-2.153,5.383-5.383a7.766,7.766,0,0,0-.646-4.522,3.919,3.919,0,0,0-2.8-2.153l-40.049-6.244Z" transform="translate(-425.758 -79.182)"/><g transform="translate(0 14.624)"><path class="b" d="M454.744,267.971h0a14.211,14.211,0,0,1-3.014-.215A18.976,18.976,0,0,1,435.8,246.009L460.989,86.891a.949.949,0,0,1,1.292-.861l35.312,5.6c.215,0,.646.215.646.431a1.294,1.294,0,0,1,.215.861L473.261,252.038C472.185,261.3,464.218,267.971,454.744,267.971ZM463.357,88.4,438.38,246.44a16.749,16.749,0,0,0,14,19.163,10.481,10.481,0,0,0,2.584.215,16.873,16.873,0,0,0,16.579-14L496.515,93.781Z" transform="translate(-435.616 -85.974)"/><g transform="translate(6.702 55.982)"><path class="b" d="M451.37,231.315h0a5.96,5.96,0,0,1-1.938-.215,12.857,12.857,0,0,1-10.55-14.641l16.364-103.567a.949.949,0,0,1,1.292-.861l23.039,3.66c.215,0,.646.215.646.431a1.3,1.3,0,0,1,.215.861L464.074,220.549A12.924,12.924,0,0,1,451.37,231.315Z" transform="translate(-438.729 -111.974)"/></g></g></g><g transform="translate(213.722 551.689)"><path class="b" d="M250.8,465.246h0a66.98,66.98,0,0,1-38.541-121.653L190.939,286.1a1.112,1.112,0,0,1,.646-1.507l29.929-11.2h.861l.646.646,21.316,57.489c2.153-.215,4.306-.215,6.459-.215a67.034,67.034,0,0,1,23.254,129.835A66.16,66.16,0,0,1,250.8,465.246Zm-57.7-178.927,21.316,57.274a1.036,1.036,0,0,1-.431,1.292,64.141,64.141,0,0,0-23.9,75.791c9.474,25.192,33.8,42.2,60.5,42.2h0a62.682,62.682,0,0,0,22.608-4.091A64.926,64.926,0,0,0,311.3,375.675c-9.474-25.192-33.8-42.2-60.5-42.2-2.368,0-4.737.215-7.105.431a1.535,1.535,0,0,1-1.292-.646l-21.316-57.274Z" transform="translate(-177.387 -255.098)"/><path class="b" d="M189.937,298.059c-3.23,0-6.675-3.014-8.182-7.105-1.938-5.168-.431-10.335,3.23-11.627l37.68-14a6.287,6.287,0,0,1,1.938-.431c3.23,0,6.675,3.014,8.182,7.105a13.613,13.613,0,0,1,.646,7.105,7.041,7.041,0,0,1-3.66,4.737l-37.68,14C191.228,297.843,190.582,298.059,189.937,298.059Zm34.45-30.79a1.941,1.941,0,0,0-1.077.215l-37.68,14c-2.368.861-3.23,4.952-1.723,8.828,1.507,3.66,4.737,6.244,7.105,5.383l37.68-14a4.368,4.368,0,0,0,2.368-3.014,10.126,10.126,0,0,0-.431-5.6C229.124,269.422,226.755,267.268,224.387,267.268Z" transform="translate(-180.906 -264.9)"/><path class="b" d="M299.31,316.276a1.035,1.035,0,0,0-1.292-.431L187.346,357.186a1.184,1.184,0,0,0-.646,1.077,54.17,54.17,0,0,0,2.8,10.12,61.2,61.2,0,0,0,33.374,34.881h0c2.153.861,4.306,1.722,6.459,2.368h0a61.05,61.05,0,0,0,74.714-79.667C302.54,322.735,301.032,319.506,299.31,316.276Z" transform="translate(-174.224 -206.25)"/></g><g transform="translate(643.005 801.805)"><path class="b" d="M413.846,420.546a1.184,1.184,0,0,1-1.077-.646c-.215-.646-.215-1.292.431-1.507.215,0,15.933-9.474,27.56-36.6a1.16,1.16,0,0,1,2.153.861c-12.058,27.991-27.991,37.465-28.637,37.68A.753.753,0,0,1,413.846,420.546Z" transform="translate(-342.964 -381.063)"/><g transform="translate(79.979 18.167)"><path class="b" d="M438.472,415.769h0c-7.751,0-14.641-4.091-20.886-12.058a1.372,1.372,0,0,1,0-1.292c6.029-8.613,13.134-12.919,21.1-12.919,13.134,0,23.685,11.412,24.115,12.058a1.041,1.041,0,0,1,0,1.507C462.372,403.5,451.822,415.769,438.472,415.769Zm-18.517-12.7c5.383,6.89,11.627,10.55,18.517,10.55h0c10.55,0,19.378-8.613,21.962-11.2-2.584-2.584-11.412-10.55-21.747-10.55C431.8,391.868,425.338,395.529,419.955,403.065Z" transform="translate(-417.425 -389.5)"/><path class="b" d="M418.577,397.684a1.077,1.077,0,0,1,0-2.153l20.67-.431a1.077,1.077,0,0,1,0,2.153l-20.67.431Z" transform="translate(-417.339 -383.042)"/></g><path class="b" d="M437.166,500.979h0a56.874,56.874,0,0,1-6.244-.431,26.219,26.219,0,0,1-10.766-4.522,24.483,24.483,0,0,1-3.445-3.23,12.071,12.071,0,0,0-4.091-3.445,18.16,18.16,0,0,0-5.168-1.507,34.425,34.425,0,0,1-4.522-1.077,22.882,22.882,0,0,1-9.689-6.244c-10.12-10.766-12.7-27.13-12.919-39.187-.431-15.933,2.368-28.422,8.182-37.25,6.459-9.689,17.871-15.287,30.144-15.287a36.147,36.147,0,0,1,10.766,1.507,31.791,31.791,0,0,1,18.517,14.641c2.8,4.522,4.091,5.383,4.522,5.6s1.722.646,4.952.646h2.153c16.579-.646,33.8,12.919,38.111,29.5a34.313,34.313,0,0,1-1.077,21.316q-5.814,14.857-25.838,27.776C458.7,497.1,447.286,500.979,437.166,500.979ZM418.649,391.169c-11.627,0-22.177,5.383-28.206,14.426-5.6,8.182-8.182,20.24-7.751,35.742.215,11.627,2.584,27.345,12.273,37.68a22.6,22.6,0,0,0,8.828,5.814c1.292.431,2.584.646,4.091,1.077,1.938.431,4.091.646,6.029,1.723,1.722.861,3.23,2.584,4.737,3.876a18.727,18.727,0,0,0,3.23,2.8,23.984,23.984,0,0,0,9.689,4.091c10.981,1.938,24.115-1.722,38.111-10.55,12.919-8.182,21.316-17.01,24.977-26.484a32.606,32.606,0,0,0,1.077-19.809c-4.091-15.718-20.24-28.422-35.958-27.776h-2.153c-3.014,0-4.952-.215-6.029-.861-1.292-.646-3.014-2.8-5.383-6.46a30.389,30.389,0,0,0-17.225-13.565A29.743,29.743,0,0,0,418.649,391.169Z" transform="translate(-380.28 -372.14)"/></g><g transform="translate(194.571 201.586)"><path class="b" d="M250.146,347.759h0a9.173,9.173,0,0,1-8.613-5.813l-68.9-176.774a9.422,9.422,0,0,1,5.383-12.058l128.759-50.168A8.64,8.64,0,0,1,310,102.3a9.173,9.173,0,0,1,8.613,5.814l68.9,176.774a9.422,9.422,0,0,1-5.383,12.058L253.376,347.113A8.64,8.64,0,0,1,250.146,347.759ZM310,104.453a10.807,10.807,0,0,0-2.584.431L178.662,155.052a7.15,7.15,0,0,0-3.876,3.66,7.736,7.736,0,0,0-.215,5.383l68.9,176.774a7.257,7.257,0,0,0,6.46,4.522h0a10.808,10.808,0,0,0,2.584-.431l128.758-50.168a7.15,7.15,0,0,0,3.876-3.66,7.736,7.736,0,0,0,.215-5.383l-68.9-176.774A7.257,7.257,0,0,0,310,104.453Z" transform="translate(-172.011 -102.3)"/><path class="b" d="M197.565,196.187h0a9.173,9.173,0,0,1-8.613-5.814l-10.12-25.838a9.423,9.423,0,0,1,5.383-12.058L293.6,109.846a8.64,8.64,0,0,1,3.23-.646,9.173,9.173,0,0,1,8.613,5.814l10.12,25.838a9.422,9.422,0,0,1-5.383,12.058l-109.38,42.632A7.19,7.19,0,0,1,197.565,196.187Zm99.476-84.4a10.806,10.806,0,0,0-2.584.431l-109.38,42.632a7.15,7.15,0,0,0-3.876,3.66,7.736,7.736,0,0,0-.215,5.383l10.12,25.838a7.257,7.257,0,0,0,6.459,4.522h0a10.808,10.808,0,0,0,2.584-.431l109.38-42.632a7.15,7.15,0,0,0,3.876-3.66,7.736,7.736,0,0,0,.215-5.383L303.5,116.305A6.93,6.93,0,0,0,297.041,111.784Z" transform="translate(-164.862 -94.343)"/><g transform="translate(130.887 94.093)"><path class="b" d="M232.8,159.565l8.182-3.23-3.23-8.182,5.6-2.153,3.23,8.182,8.182-3.23,2.153,5.6-8.182,3.23,3.23,8.182-5.6,2.153-3.23-8.182-8.182,3.23Z" transform="translate(-232.8 -146)"/></g><g transform="translate(82.441 184.095)"><path class="b" d="M212.668,192.322l7.967,3.445,3.445-7.967,5.383,2.368-3.445,7.967,7.967,3.445-2.368,5.383-7.967-3.445-3.445,7.967-5.383-2.368,3.445-7.967L210.3,197.7Z" transform="translate(-210.3 -187.8)"/></g><g transform="translate(56.388 125.744)"><path class="b" d="M221.885,160.7l2.368,6.244L200.568,176.2l-2.368-6.244Z" transform="translate(-198.2 -160.7)"/></g><path class="b" d="M212,218.062h0a9.393,9.393,0,0,1-8.613-5.813l-14.426-37.034a8.972,8.972,0,0,1,5.168-11.842l37.034-14.426a8.639,8.639,0,0,1,3.23-.646,9.393,9.393,0,0,1,8.613,5.814l14.426,37.034a8.972,8.972,0,0,1-5.168,11.842l-37.034,14.426A7.866,7.866,0,0,1,212,218.062Zm22.608-67.609a10.81,10.81,0,0,0-2.584.431L194.992,165.31a6.91,6.91,0,0,0-3.876,9.043l14.426,37.034A7.052,7.052,0,0,0,212,215.694h0a10.81,10.81,0,0,0,2.584-.431l37.034-14.426a6.91,6.91,0,0,0,3.876-9.043l-14.426-37.034A6.833,6.833,0,0,0,234.61,150.453Z" transform="translate(-153.245 -49.255)"/><path class="b" d="M245.5,205.062h0a9.393,9.393,0,0,1-8.613-5.814l-14.426-37.034a8.972,8.972,0,0,1,5.168-11.842l37.034-14.426a8.64,8.64,0,0,1,3.23-.646,9.393,9.393,0,0,1,8.613,5.814l14.426,37.034a8.972,8.972,0,0,1-5.168,11.842l-37.034,14.426A7.19,7.19,0,0,1,245.5,205.062Zm22.823-67.824a10.808,10.808,0,0,0-2.584.431l-37.034,14.426a6.91,6.91,0,0,0-3.876,9.043l14.426,37.034a7.052,7.052,0,0,0,6.459,4.306h0a10.808,10.808,0,0,0,2.584-.431l37.034-14.426a6.91,6.91,0,0,0,3.876-9.043l-14.426-37.034A7.413,7.413,0,0,0,268.325,137.238Z" transform="translate(-114.615 -64.246)"/><path class="b" d="M223.2,246.962h0a9.393,9.393,0,0,1-8.613-5.813l-14.426-37.034a8.972,8.972,0,0,1,5.168-11.842l37.034-14.426a8.64,8.64,0,0,1,3.23-.646,9.393,9.393,0,0,1,8.613,5.814l14.426,37.034a8.972,8.972,0,0,1-5.168,11.842l-37.034,14.426A7.19,7.19,0,0,1,223.2,246.962Zm22.823-67.824a10.81,10.81,0,0,0-2.584.431l-37.034,14.426a6.91,6.91,0,0,0-3.876,9.043l14.426,37.034a7.052,7.052,0,0,0,6.459,4.306h0a10.808,10.808,0,0,0,2.584-.431l37.034-14.426a6.91,6.91,0,0,0,3.876-9.043l-14.426-37.034A7.052,7.052,0,0,0,246.025,179.138Z" transform="translate(-140.33 -15.929)"/><path class="b" d="M256.771,233.977h0a9.393,9.393,0,0,1-8.613-5.814L233.733,191.13a9.059,9.059,0,0,1,.215-7.105,10.528,10.528,0,0,1,5.168-4.952l37.034-14.426a8.639,8.639,0,0,1,3.23-.646,9.393,9.393,0,0,1,8.613,5.813l14.426,37.034a8.972,8.972,0,0,1-5.168,11.842l-37.034,14.426A7.383,7.383,0,0,1,256.771,233.977Zm22.608-67.609a10.808,10.808,0,0,0-2.584.431l-37.034,14.426a7.151,7.151,0,0,0-3.876,3.66,7.736,7.736,0,0,0-.215,5.383L250.1,227.3a7.052,7.052,0,0,0,6.459,4.306h0a10.808,10.808,0,0,0,2.584-.431l37.034-14.426a6.91,6.91,0,0,0,3.876-9.043l-14.426-37.034A6.547,6.547,0,0,0,279.38,166.368Z" transform="translate(-101.554 -31.15)"/><g transform="translate(152.849 156.534)"><path class="b" d="M243,183.4l21.747-8.4,2.153,5.6L245.153,189Zm3.445,8.828,21.747-8.4,2.153,5.6-21.747,8.4Z" transform="translate(-243 -175)"/></g></g><g transform="translate(799.766 597.767)"><path class="b" d="M590.7,532.405h0a9.754,9.754,0,0,1-3.445-.646L458.931,480.514a9.283,9.283,0,0,1-5.168-12.058l70.193-176.343a9.393,9.393,0,0,1,8.613-5.814,9.753,9.753,0,0,1,3.445.646l128.328,51.245a8.986,8.986,0,0,1,5.168,4.952,8.22,8.22,0,0,1,0,7.105L599.316,526.592A8.874,8.874,0,0,1,590.7,532.405Zm-57.92-243.522a7.052,7.052,0,0,0-6.459,4.306L456.132,469.533a6.814,6.814,0,0,0,3.876,9.043l128.328,51.245a5.46,5.46,0,0,0,2.584.431h0a7.052,7.052,0,0,0,6.459-4.306L667.571,349.6a7.719,7.719,0,0,0,0-5.383,6.51,6.51,0,0,0-3.876-3.66L535.367,289.314A5.46,5.46,0,0,0,532.784,288.884Z" transform="translate(-453.085 -286.3)"/><path class="b" d="M601.525,380.933h0a9.752,9.752,0,0,1-3.445-.646l-108.95-43.494a9.283,9.283,0,0,1-5.168-12.058L494.3,299.114a9.393,9.393,0,0,1,8.613-5.814,9.753,9.753,0,0,1,3.445.646l108.95,43.494a8.07,8.07,0,0,1,4.952,4.952,8.22,8.22,0,0,1,0,7.105L609.923,375.12A9.1,9.1,0,0,1,601.525,380.933Zm-98.83-85.48a7.052,7.052,0,0,0-6.459,4.306L485.9,325.382a6.814,6.814,0,0,0,3.876,9.043l108.949,43.494a5.463,5.463,0,0,0,2.584.431h0a7.052,7.052,0,0,0,6.459-4.306L618.1,348.421a7.718,7.718,0,0,0,0-5.383,6.51,6.51,0,0,0-3.876-3.66l-108.95-43.494A10.805,10.805,0,0,0,502.7,295.453Z" transform="translate(-418.26 -278.228)"/><g transform="translate(133.527 122.945)"><path class="b" d="M517.253,348.352l8.182,3.23,3.23-8.182,5.6,2.153-3.23,8.182,8.182,3.23-2.153,5.6-8.182-3.23-3.23,7.967-5.6-2.153,3.23-7.967-8.182-3.23Z" transform="translate(-515.1 -343.4)"/></g><g transform="translate(36.851 155.458)"><path class="b" d="M480.1,358.5l3.445,7.967,7.967-3.445,2.368,5.383-7.967,3.445,3.445,7.967-5.383,2.368-3.445-7.967-7.967,3.445L470.2,372.28l7.967-3.445-3.445-7.967Z" transform="translate(-470.2 -358.5)"/></g><g transform="translate(59.89 96.892)"><path class="b" d="M507.168,340.774l-2.584,6.244L480.9,337.544l2.584-6.244Z" transform="translate(-480.9 -331.3)"/></g><path class="b" d="M517.11,389.308h0a9.753,9.753,0,0,1-3.445-.646l-37.034-14.857a9.283,9.283,0,0,1-5.168-12.058l14.857-37.034a9.393,9.393,0,0,1,8.613-5.814,9.753,9.753,0,0,1,3.445.646L535.412,334.4a8.07,8.07,0,0,1,4.952,4.952,8.219,8.219,0,0,1,0,7.105l-14.857,37.034A8.886,8.886,0,0,1,517.11,389.308Zm-22.177-67.824a7.052,7.052,0,0,0-6.459,4.306l-14.857,37.034a7.718,7.718,0,0,0,0,5.383,6.51,6.51,0,0,0,3.876,3.66l37.034,14.857a5.461,5.461,0,0,0,2.584.431,7.052,7.052,0,0,0,6.459-4.306l14.857-37.034a7.718,7.718,0,0,0,0-5.383,6.51,6.51,0,0,0-3.876-3.66l-37.034-14.857A10.8,10.8,0,0,0,494.933,321.484Z" transform="translate(-432.674 -248.707)"/><path class="b" d="M550.51,402.608h0a9.753,9.753,0,0,1-3.445-.646l-37.034-14.857a9.283,9.283,0,0,1-5.168-12.058l14.857-37.034a9.393,9.393,0,0,1,8.613-5.814,9.756,9.756,0,0,1,3.445.646L568.812,347.7a8.07,8.07,0,0,1,4.952,4.952,8.215,8.215,0,0,1,0,7.105l-14.857,37.034A8.6,8.6,0,0,1,550.51,402.608Zm-22.177-67.824a7.052,7.052,0,0,0-6.459,4.306l-14.857,37.034a7.718,7.718,0,0,0,0,5.383,6.51,6.51,0,0,0,3.876,3.66l37.034,14.857a5.461,5.461,0,0,0,2.584.431,7.052,7.052,0,0,0,6.459-4.306l14.857-37.034a7.718,7.718,0,0,0,0-5.383,6.51,6.51,0,0,0-3.876-3.66l-37.034-14.857A10.812,10.812,0,0,0,528.333,334.784Z" transform="translate(-394.159 -233.37)"/><path class="b" d="M505.61,418.008h0a9.753,9.753,0,0,1-3.445-.646l-37.034-14.857a9.283,9.283,0,0,1-5.168-12.058l14.857-37.034a9.393,9.393,0,0,1,8.613-5.814,9.753,9.753,0,0,1,3.445.646L523.912,363.1a9.283,9.283,0,0,1,5.168,12.058l-14.857,37.034A9.074,9.074,0,0,1,505.61,418.008Zm-22.177-67.824a7.052,7.052,0,0,0-6.459,4.306l-14.857,37.034a6.885,6.885,0,0,0,3.876,9.043l37.034,14.857a5.461,5.461,0,0,0,2.584.431,7.052,7.052,0,0,0,6.46-4.306l14.857-37.034a6.885,6.885,0,0,0-3.876-9.043l-37.034-14.857A10.807,10.807,0,0,0,483.433,350.184Z" transform="translate(-445.936 -215.612)"/><path class="b" d="M538.922,431.408h0a9.752,9.752,0,0,1-3.445-.646l-37.034-14.857a8.07,8.07,0,0,1-4.952-4.952,9.048,9.048,0,0,1,0-7.105l14.857-37.034A9.393,9.393,0,0,1,516.96,361a9.752,9.752,0,0,1,3.445.646L557.439,376.5a9.283,9.283,0,0,1,5.168,12.058L547.75,425.595A9.931,9.931,0,0,1,538.922,431.408Zm-22.177-67.824a7.052,7.052,0,0,0-6.459,4.306l-14.857,37.034a7.719,7.719,0,0,0,0,5.383,6.51,6.51,0,0,0,3.876,3.66l37.034,14.857a5.461,5.461,0,0,0,2.584.431,7.052,7.052,0,0,0,6.46-4.306l14.857-37.034a6.885,6.885,0,0,0-3.876-9.043l-37.034-14.857A5.461,5.461,0,0,0,516.744,363.584Z" transform="translate(-407.332 -200.16)"/><g transform="translate(107.044 184.74)"><path class="b" d="M508.4,372.1l21.747,8.613-2.153,5.6L506.245,377.7Zm-3.445,8.613,21.747,8.613-2.153,5.6L502.8,386.311Z" transform="translate(-502.8 -372.1)"/></g></g><path class="b" d="M274.468,68.111,254.659,57.776a1.014,1.014,0,0,0-1.292.215L200.831,104.93a1.644,1.644,0,0,0-.431,1.077c0,.431.215.646.646.861l18.517,9.689c.431.215,1.077.215,1.292-.215l7.321-7.536,18.948,9.9-1.938,10.335a1.535,1.535,0,0,0,.646,1.292l18.948,9.9a.752.752,0,0,1,.431.215s.431,0,.431-.215c.431-.215.646-.431.646-.861L274.9,69.4A.958.958,0,0,0,274.468,68.111Zm-23.9,33.374-10.12-5.168,13.565-13.78Z" transform="translate(55.296 47.78)"/><path class="b" d="M566.9,132.623a19.4,19.4,0,0,0-5.383-8.613,18.131,18.131,0,0,0-10.551-5.168A16.684,16.684,0,0,0,541.708,121a13.481,13.481,0,0,0,.646-5.813,17.165,17.165,0,0,0-18.087-15.072q-7.428.323-14.211,7.751l-26.484,27.56a1.31,1.31,0,0,0,0,1.723l47.8,45.647c.215.215.431.215.861.215a1.633,1.633,0,0,0,.861-.431l24.331-25.407a69.337,69.337,0,0,0,5.814-7.321c2.153-3.014,3.445-5.383,3.876-7.536A21.06,21.06,0,0,0,566.9,132.623Zm-57.059-1.938,5.383-5.6c1.938-1.938,3.66-3.014,4.952-3.23a4.32,4.32,0,0,1,3.66,1.507c1.292,1.292,1.938,2.368,1.722,3.66,0,1.292-1.077,3.23-3.014,5.168l-5.383,5.6Zm36.173,12.273c0,1.507-1.292,3.66-3.445,5.813l-6.459,6.675-7.967-7.751,6.459-6.675q3.553-3.553,5.813-3.876a4.341,4.341,0,0,1,3.876,1.292C545.368,140.159,546.015,141.451,546.015,142.959Z" transform="translate(381.465 96.739)"/><g transform="translate(796.83 844.302)"><g transform="translate(0)"><path class="b" d="M485.479,473.361a23.423,23.423,0,0,1-8.613-1.507,38.1,38.1,0,0,1-12.7-8.4A42.3,42.3,0,0,1,453.4,448.6c-1.938-4.737-2.153-10.55-.861-16.794s4.952-12.488,10.766-18.517c7.751-7.967,15.933-12.273,24.546-12.488h.646c8.182,0,16.364,3.66,23.9,10.981,6.244,5.814,9.9,11.842,10.981,17.871s0,12.488-3.23,19.163l-.646.646a1.294,1.294,0,0,1-.861-.215l-15.718-9.474a1.235,1.235,0,0,1-.431-1.507A19.956,19.956,0,0,0,504,434.174a12.555,12.555,0,0,0-.431-4.952,13.462,13.462,0,0,0-2.8-4.306,10.732,10.732,0,0,0-10.55-3.014q-4.522.969-10.335,7.105c-4.952,4.952-7.536,9.259-7.751,12.488a9.575,9.575,0,0,0,3.66,8.4c2.584,2.368,5.168,3.66,7.751,3.445,2.8-.215,5.814-1.507,9.259-3.66a1.294,1.294,0,0,1,.861-.215.688.688,0,0,1,.646.646l9.258,16.364c.215.431.215,1.292-.431,1.507-4.522,2.8-8.828,4.737-13.134,5.383A31.327,31.327,0,0,0,485.479,473.361Z" transform="translate(-451.722 -400.8)"/></g></g><g transform="translate(209.619 509.057)"><path class="b" d="M195.579,278.259a16.579,16.579,0,1,1,16.579-16.579A16.586,16.586,0,0,1,195.579,278.259Z" transform="translate(-179 -245.1)"/></g><g transform="translate(239.642 475.037)"><path class="b" d="M204.261,252.123a11.306,11.306,0,0,1-9.689-5.383,11.556,11.556,0,0,1,9.9-17.441,11.306,11.306,0,0,1,9.689,5.383A11.5,11.5,0,0,1,210.29,250.4,12.179,12.179,0,0,1,204.261,252.123Z" transform="translate(-192.944 -229.3)"/></g><g transform="translate(807.859 117.398)"><path class="b" d="M468.161,86.023a11.306,11.306,0,0,1-9.689-5.383,11.556,11.556,0,0,1,9.9-17.441,11.306,11.306,0,0,1,9.689,5.383A11.537,11.537,0,0,1,474.19,84.3,10.311,10.311,0,0,1,468.161,86.023Z" transform="translate(-456.844 -63.2)"/></g><path class="b" d="M198.127,221.729a8.269,8.269,0,0,0-7.967-6.029,8.832,8.832,0,0,0-2.368.215,8.329,8.329,0,0,0,2.153,16.364,8.833,8.833,0,0,0,2.368-.215A8.3,8.3,0,0,0,198.127,221.729Z" transform="translate(33.669 230.054)"/><path class="b" d="M490.427,54.729A8.269,8.269,0,0,0,482.46,48.7a8.832,8.832,0,0,0-2.368.215,8.329,8.329,0,0,0,2.153,16.364,8.832,8.832,0,0,0,2.368-.215A8.3,8.3,0,0,0,490.427,54.729Z" transform="translate(370.736 37.477)"/><path class="b" d="M551.941,178.53a4.094,4.094,0,0,0-3.876-3.23,1.941,1.941,0,0,0-1.077.215,4.456,4.456,0,0,0-2.8,5.383,4.094,4.094,0,0,0,3.876,3.23,1.941,1.941,0,0,0,1.077-.215A4.355,4.355,0,0,0,551.941,178.53Z" transform="translate(451.545 183.467)"/><path class="b" d="M219.541,388.33a4.094,4.094,0,0,0-3.876-3.23,1.941,1.941,0,0,0-1.077.215,4.456,4.456,0,0,0-2.8,5.383,4.094,4.094,0,0,0,3.876,3.23,1.941,1.941,0,0,0,1.077-.215C218.895,393.282,219.971,390.7,219.541,388.33Z" transform="translate(68.237 425.398)"/><path class="b" d="M452.741,454.03a4.094,4.094,0,0,0-3.876-3.23,1.941,1.941,0,0,0-1.077.215,4.456,4.456,0,0,0-2.8,5.383,4.094,4.094,0,0,0,3.876,3.23,1.94,1.94,0,0,0,1.077-.215C452.095,458.982,453.387,456.4,452.741,454.03Z" transform="translate(337.152 501.16)"/><path class="b" d="M379.441,19.43a4.094,4.094,0,0,0-3.876-3.23,1.941,1.941,0,0,0-1.077.215,4.456,4.456,0,0,0-2.8,5.383,4.094,4.094,0,0,0,3.876,3.23,1.941,1.941,0,0,0,1.077-.215A4.355,4.355,0,0,0,379.441,19.43Zm-5.6-1.292h0v.431a.752.752,0,0,0-.215.431c0,.215,0,.215.215.431a.791.791,0,0,0-.646-.215A1.184,1.184,0,0,1,373.842,18.138Zm1.077-.646h0c.215.431.646.646,1.077,1.077a.791.791,0,0,0-.646-.215l-.646-.646C374.7,17.492,374.7,17.492,374.919,17.492Zm2.368.431c-.215-.215-.646-.431-.861-.646h.215Q376.964,17.923,377.288,17.923Zm-2.8,3.23c-.431-.431-1.077-.646-1.292-1.077A8.2,8.2,0,0,0,374.488,21.152Zm-1.507.215h0c.215,0,.215.215.431.215-.215,0-.431,0-.431-.215Zm3.66-.646c.646.431,1.077,1.077,1.723,1.507h0A10.788,10.788,0,0,1,376.642,20.722Z" transform="translate(252.626)"/><path class="b" d="M169.241,186.73a4.094,4.094,0,0,0-3.876-3.23,1.941,1.941,0,0,0-1.077.215,4.456,4.456,0,0,0-2.8,5.383,4.094,4.094,0,0,0,3.876,3.23,1.941,1.941,0,0,0,1.077-.215A4.456,4.456,0,0,0,169.241,186.73Z" transform="translate(10.234 192.922)"/><path class="b" d="M556.8,165.938A2.523,2.523,0,0,0,554.428,164h-.646a2.822,2.822,0,0,0-1.723,3.445,2.523,2.523,0,0,0,2.368,1.938h.646A2.822,2.822,0,0,0,556.8,165.938Z" transform="translate(460.685 170.436)"/><path class="b" d="M196.8,416.638a2.523,2.523,0,0,0-2.368-1.938h-.646a2.822,2.822,0,0,0-1.723,3.445,2.523,2.523,0,0,0,2.368,1.938h.646A2.822,2.822,0,0,0,196.8,416.638Z" transform="translate(45.55 459.531)"/><path class="b" d="M431.7,451.438a2.523,2.523,0,0,0-2.368-1.938h-.646a2.822,2.822,0,0,0-1.722,3.445,2.523,2.523,0,0,0,2.368,1.938h.646A2.648,2.648,0,0,0,431.7,451.438Z" transform="translate(316.425 499.661)"/><path class="b" d="M478.8,471.238a2.523,2.523,0,0,0-2.368-1.938h-.646a2.822,2.822,0,0,0-1.722,3.445,2.523,2.523,0,0,0,2.368,1.938h.646A2.648,2.648,0,0,0,478.8,471.238Z" transform="translate(370.739 522.493)"/><path class="b" d="M330.8,43.638a2.523,2.523,0,0,0-2.368-1.938h-.646a2.822,2.822,0,0,0-1.723,3.445,2.523,2.523,0,0,0,2.368,1.938h.646A2.822,2.822,0,0,0,330.8,43.638Zm-3.445-.646h0v.431a.211.211,0,0,0,.215.215c-.215,0-.215-.215-.431-.215S327.137,43.207,327.352,42.992Zm.646-.431h0l.646.646c-.215,0-.215-.215-.431-.215a.752.752,0,0,1-.215-.431Zm1.507.431c-.215-.215-.431-.215-.431-.431h.215C329.074,42.777,329.29,42.777,329.505,42.992Zm-1.723,1.938c-.215-.215-.646-.431-.861-.646C327.137,44.284,327.352,44.5,327.782,44.93Zm-1.077,0h0a.211.211,0,0,1,.215.215l-.215-.215Zm2.368-.431c.431.215.646.646,1.077.861h0A2.15,2.15,0,0,1,329.074,44.5Z" transform="translate(200.072 29.405)"/><path class="b" d="M157.3,184.138a2.523,2.523,0,0,0-2.368-1.938h-.646a2.822,2.822,0,0,0-1.723,3.445,2.523,2.523,0,0,0,2.368,1.938h.646A2.822,2.822,0,0,0,157.3,184.138Z" transform="translate(0 191.423)"/><path class="b" d="M158.5,165.938A2.523,2.523,0,0,0,156.128,164h-.646a2.822,2.822,0,0,0-1.723,3.445,2.523,2.523,0,0,0,2.368,1.938h.646A3.039,3.039,0,0,0,158.5,165.938Z" transform="translate(1.384 170.436)"/><path class="b" d="M266.8,118.655a5.527,5.527,0,0,1-3.876-1.507,5.882,5.882,0,0,1-1.722-4.091,5.042,5.042,0,0,1,1.722-3.876L264,108.32l23.9-20.886a3.184,3.184,0,0,1,2.8-.861,3.069,3.069,0,0,1,2.584,1.292,3.391,3.391,0,0,1,.861,2.8,3.069,3.069,0,0,1-1.292,2.584l-15.718,12.7a1.227,1.227,0,0,1-1.507-1.938l15.718-12.7a1.523,1.523,0,0,0-2.153-2.153L264.43,110.9a3.458,3.458,0,0,0-1.077,2.368,3.238,3.238,0,0,0,.861,2.368,3.272,3.272,0,0,0,4.306.215L297.8,90.233a4.6,4.6,0,0,0,1.722-3.66,6.011,6.011,0,0,0-1.292-3.876,5.4,5.4,0,0,0-7.536-.431l-24.546,21.962a1.218,1.218,0,0,1-1.722-1.723l24.546-21.962A7.626,7.626,0,0,1,299.1,91.956l-29.283,25.623A3.9,3.9,0,0,1,266.8,118.655Z" transform="translate(125.408 71.951)"/><path class="b" d="M321.451,82.918a7.475,7.475,0,0,1-5.383-2.153l-27.13-27.991a5.616,5.616,0,0,1-.215-7.536A6.68,6.68,0,0,1,292.6,43.3a5.882,5.882,0,0,1,4.091,1.723l.861.861,21.962,22.823a3.973,3.973,0,0,1,1.076,2.584,4.535,4.535,0,0,1-1.076,2.8,3.973,3.973,0,0,1-2.584,1.077h0a4.535,4.535,0,0,1-2.8-1.077L300.565,59.018a1.218,1.218,0,1,1,1.722-1.723l13.565,15.072a1.523,1.523,0,0,0,2.153-2.153L294.967,46.53a2.562,2.562,0,0,0-2.368-.861,3.458,3.458,0,0,0-2.368,1.077,3.271,3.271,0,0,0,0,4.306l27.13,27.991a5.2,5.2,0,0,0,7.536,0,5.043,5.043,0,0,0,1.507-3.66,5.194,5.194,0,0,0-1.507-3.66L301.642,48.468a1.218,1.218,0,1,1,1.722-1.723L326.618,70a7.474,7.474,0,0,1,2.153,5.383,8.5,8.5,0,0,1-2.153,5.383A6.678,6.678,0,0,1,321.451,82.918Z" transform="translate(155.589 31.25)"/><path class="b" d="M221.255,400.657h0l-38.972-.646a5.587,5.587,0,0,1-5.383-5.168,5.684,5.684,0,0,1,1.507-4.091,5.882,5.882,0,0,1,4.091-1.722h1.292l31.651.431a3.876,3.876,0,1,1,0,7.751h0l-20.24-1.077a1.189,1.189,0,0,1,.215-2.368l20.24,1.077c.431,0,.646-.215,1.077-.431a1.644,1.644,0,0,0,.431-1.077,1.472,1.472,0,0,0-1.507-1.507l-32.943-.431h0a3.458,3.458,0,0,0-2.368,1.077,3.238,3.238,0,0,0-.861,2.368,3.128,3.128,0,0,0,3.23,3.014l38.972.646h0a5.469,5.469,0,0,0,5.383-5.383,5.2,5.2,0,0,0-1.507-3.66,5.043,5.043,0,0,0-3.66-1.507H188.958a1.077,1.077,0,1,1,0-2.153H221.9a8.5,8.5,0,0,1,5.383,2.153,7.475,7.475,0,0,1,2.153,5.383,8.5,8.5,0,0,1-2.153,5.383C225.131,399.8,223.193,400.657,221.255,400.657Z" transform="translate(28.197 426.205)"/><path class="b" d="M536.983,173.459a5.042,5.042,0,0,1-3.876-1.723,5.683,5.683,0,0,1-1.507-4.091,5.233,5.233,0,0,1,1.938-3.876l1.076-.861,24.546-20.024a4.327,4.327,0,0,1,2.8-.861,3.753,3.753,0,0,1,2.584,1.292,4.327,4.327,0,0,1,.861,2.8,3.754,3.754,0,0,1-1.292,2.584l-16.149,12.273a1.077,1.077,0,0,1-1.292-1.723l16.149-12.058a1.645,1.645,0,0,0,.431-1.077c0-.431,0-.861-.431-1.077a1.644,1.644,0,0,0-1.077-.431c-.431,0-.861,0-1.077.431l-25.623,20.886a2.99,2.99,0,0,0-1.077,2.153,3.237,3.237,0,0,0,.861,2.368,3.053,3.053,0,0,0,4.306.215l30.144-24.546a5.572,5.572,0,0,0,1.938-3.66,4.341,4.341,0,0,0-1.292-3.876,5.408,5.408,0,0,0-7.536-.646l-25.192,21.1a1.228,1.228,0,0,1-1.507-1.938l25.192-21.1a7.566,7.566,0,0,1,10.766.861,7.763,7.763,0,0,1-.861,10.766l-30.144,24.546A5.848,5.848,0,0,1,536.983,173.459Z" transform="translate(437.22 136)"/><path class="b" d="M278.873,467.485a6.06,6.06,0,0,1-4.522-2.153,5.156,5.156,0,0,1-.861-4.306,5.285,5.285,0,0,1,2.368-3.66l1.077-.646L303.85,440.14a3.772,3.772,0,0,1,5.168,1.077,3.3,3.3,0,0,1,.431,2.8,3.334,3.334,0,0,1-1.723,2.369l-17.656,9.9c-.646.215-1.292.215-1.507-.431s-.215-1.292.431-1.507l17.656-9.9a2.973,2.973,0,0,0,.646-.861,1.613,1.613,0,0,0-.215-1.077,1.154,1.154,0,0,0-.861-.646,1.613,1.613,0,0,0-1.077.215l-27.991,17.44a3.949,3.949,0,0,0-1.507,2.153,2.43,2.43,0,0,0,.646,2.368,3.34,3.34,0,0,0,4.306.861l33.158-20.455a5.238,5.238,0,0,0,1.507-7.321,5.807,5.807,0,0,0-3.23-2.368,6.876,6.876,0,0,0-4.091.646l-27.776,17.656a.925.925,0,0,1-1.507-.431.953.953,0,0,1,.431-1.507l27.776-17.656a7.758,7.758,0,0,1,5.814-1.077,8.226,8.226,0,0,1,4.737,3.23,7.7,7.7,0,0,1-2.368,10.55l-33.158,20.455A5.382,5.382,0,0,1,278.873,467.485Z" transform="translate(139.386 479.738)"/></g></svg>